<?xml version="1.0" encoding="utf-8"?>
<!-- Generator: Adobe Illustrator 27.5.0, SVG Export Plug-In . SVG Version: 6.00 Build 0)  -->
<svg version="1.1" id="Layer_1" xmlns="http://www.w3.org/2000/svg" xmlns:xlink="http://www.w3.org/1999/xlink" x="0px" y="0px"
	 viewBox="0 0 344.259 410.745" style="enable-background:new 0 0 344.259 410.745;" xml:space="preserve">
<g>
	<g>
		<path style="fill:#FFFFFF;" d="M34.562,332.253c3.078,3.491,6.37,6.574,9.184,9.13c0.375,0.341,0.771,0.659,1.186,0.951
			c4.653,3.282,9.462,6.051,11.914,7.41c2.186,1.211,4.478,2.482,6.842,3.327c1.119,0.473,2.237,0.914,3.353,1.321
			c-0.198,1.015-0.387,2.028-0.563,3.038c-0.615,3.511,0.317,7.117,2.557,9.89c5.119,6.337,11.855,10.918,21.197,14.417
			c0.276,0.104,0.557,0.197,0.841,0.281c0.547,0.161,1.072,0.318,1.525,0.459c15.945,5.006,32.476,8.076,48.463,11.046l4.089,0.761
			c16.779,3.134,34.102,5.135,51.482,5.946c3.504,0.165,6.877,0.248,10.148,0.248c5.617,0,10.925-0.244,16.051-0.734
			c4.151-0.4,8.337-1.047,12.813-1.981c0.948-0.199,1.939-0.432,2.936-0.67c0.115-0.028,0.23-0.057,0.344-0.087
			c1.817-0.489,3.813-1.001,6.108-1.568l0.171-0.043c2.021-0.499,4.788-1.184,7.649-2.952c2.135-1.32,3.816-3.259,4.822-5.559
			c0.109-0.251,0.217-0.504,0.321-0.758c1.419,0.609,2.944,0.95,4.498,0.997c2.073,0.06,3.922-0.086,5.553-0.217
			c0.504-0.041,1.006-0.083,1.521-0.114l1.244-0.074c2.258-0.133,4.817-0.283,7.415-0.65c4.962-0.687,10.333-1.827,16.42-3.481
			c6.674-1.812,13.203-4.074,19.404-6.722c0.215-0.093,0.428-0.19,0.637-0.294c2.489-1.235,4.941-2.558,7.299-3.938
			c0.261-0.153,0.541-0.312,0.832-0.478c3.973-2.264,11.367-6.478,12.692-15.121c0.271-1.767,0.155-3.572-0.34-5.29
			c-0.738-2.561-1.58-4.935-2.395-7.229c-0.815-2.298-1.585-4.469-2.13-6.498c-0.433-1.63-2.059-6.428-2.848-8.513
			c-0.728-2.243-1.449-4.487-2.162-6.735c-2.474-8.614-4.593-16.341-6.477-23.618c-5.042-19.489-9.092-39.714-12.388-56.93
			c-1.472-7.685-13.339-58.627-15.076-63.512c-1.897-5.3-4.846-9.852-8.757-13.524c-3.332-3.133-7.683-5.817-11.178-7.974
			c-0.595-0.366-1.166-0.719-1.7-1.055c-0.038-0.023-0.086-0.054-0.146-0.091c0.562-1.199,1.137-2.399,1.713-3.601
			c2.426-5.064,4.934-10.3,6.85-15.956c0.079-0.234,0.151-0.469,0.216-0.707c1.426-5.218,2.751-10.365,3.28-15.962
			c0.061-0.652,0.071-1.307,0.029-1.96c-0.594-9.188-1.791-17.642-3.656-25.846c-3.096-13.595-9.252-26.131-19.374-39.449
			c-10.685-14.066-24.37-22.98-39.576-25.78c-12.987-2.39-27.456,0.413-44.233,8.569c-25.719,12.512-47.269,32.954-59.128,56.091
			c-0.376,0.736-0.749,1.503-1.11,2.284c-0.181,0.392-0.341,0.793-0.48,1.201c-2.357,6.911-1.692,11.708-1.157,15.563
			c0.054,0.392,0.11,0.794,0.161,1.198c0.665,5.253,1.946,10.034,3.186,14.657l0.224,0.835c1.652,6.181,3.281,11.696,4.981,16.861
			c0.066,0.201,0.137,0.401,0.213,0.598c0.582,1.502,1.169,3,1.745,4.457c1.563,3.98,3.101,7.707,4.632,11.222
			c-5.832,2.693-11.171,5.202-13.864,6.613c-4.085,2.143-9.776,5.766-13.681,10.844c-2.813,3.647-4.114,7.848-5.158,11.222
			c-0.308,0.993-0.625,2.019-0.866,2.619c-7.667,19.136-17.636,38.431-31.373,60.722c-5.41,8.779-11.802,17.652-18.996,26.372
			c-1.128,1.367-2.239,2.741-3.348,4.114c-2.511,3.107-4.884,6.042-7.385,8.799c-0.529,0.582-1.366,1.359-2.252,2.181
			c-1.04,0.965-2.219,2.06-3.378,3.279c-0.682,0.718-1.275,1.514-1.766,2.373c-1.667,2.913-2.637,5.765-2.969,8.721
			c-0.083,0.742-0.098,1.49-0.046,2.235C24.033,319.243,30.072,327.15,34.562,332.253z"/>
		<path style="fill:#F1F1F1;" d="M33.225,330.915c3.078,3.491,6.37,6.574,9.184,9.13c0.375,0.341,0.771,0.659,1.186,0.951
			c4.654,3.282,9.462,6.051,11.914,7.41c2.186,1.211,4.478,2.482,6.842,3.327c1.119,0.473,2.237,0.914,3.353,1.321
			c-0.199,1.015-0.387,2.028-0.563,3.037c-0.615,3.511,0.317,7.117,2.557,9.89c5.119,6.337,11.855,10.919,21.197,14.417
			c0.276,0.104,0.558,0.197,0.841,0.281c0.547,0.161,1.073,0.318,1.525,0.459c15.945,5.006,32.476,8.076,48.463,11.046l4.089,0.761
			c16.779,3.134,34.102,5.135,51.482,5.946c3.504,0.165,6.877,0.248,10.147,0.248c5.617,0,10.925-0.244,16.051-0.734
			c4.151-0.4,8.337-1.046,12.813-1.981c0.948-0.199,1.939-0.432,2.936-0.67c0.115-0.028,0.23-0.057,0.344-0.087
			c1.817-0.489,3.813-1.001,6.108-1.568l0.171-0.043c2.021-0.499,4.788-1.184,7.649-2.952c2.135-1.32,3.816-3.259,4.822-5.559
			c0.109-0.251,0.217-0.504,0.321-0.758c1.418,0.609,2.944,0.95,4.498,0.997c2.073,0.06,3.922-0.086,5.553-0.217
			c0.504-0.041,1.006-0.083,1.521-0.114l1.244-0.074c2.258-0.133,4.817-0.283,7.415-0.65c4.961-0.687,10.333-1.827,16.42-3.481
			c6.674-1.812,13.203-4.074,19.404-6.722c0.215-0.093,0.428-0.19,0.637-0.294c2.489-1.235,4.941-2.558,7.299-3.938
			c0.261-0.153,0.541-0.312,0.832-0.478c3.973-2.264,11.367-6.477,12.692-15.121c0.271-1.767,0.155-3.572-0.34-5.29
			c-0.738-2.561-1.58-4.935-2.395-7.229c-0.815-2.298-1.586-4.469-2.13-6.498c-0.433-1.63-2.059-6.428-2.848-8.512
			c-0.728-2.243-1.48-4.477-2.162-6.735c-2.591-8.58-4.593-16.342-6.477-23.618c-5.042-19.489-9.092-39.714-12.388-56.93
			c-1.472-7.685-13.339-58.627-15.076-63.512c-1.897-5.3-4.846-9.852-8.757-13.524c-3.332-3.132-7.683-5.817-11.178-7.974
			c-0.595-0.366-1.164-0.723-1.7-1.055c-0.038-0.023-0.086-0.054-0.146-0.091c0.562-1.199,1.137-2.399,1.713-3.6
			c2.426-5.064,4.934-10.3,6.85-15.956c0.079-0.234,0.151-0.469,0.216-0.707c1.426-5.218,2.751-10.365,3.279-15.962
			c0.061-0.652,0.072-1.307,0.029-1.96c-0.594-9.188-1.79-17.642-3.656-25.846c-3.096-13.595-9.252-26.131-19.374-39.449
			c-10.685-14.066-24.37-22.98-39.576-25.78c-12.987-2.39-27.456,0.413-44.233,8.569c-25.719,12.512-47.269,32.955-59.128,56.091
			c-0.376,0.736-0.749,1.503-1.111,2.284c-0.181,0.392-0.341,0.793-0.48,1.201c-2.357,6.911-1.692,11.708-1.157,15.563
			c0.054,0.392,0.11,0.794,0.161,1.198c0.665,5.253,1.946,10.034,3.186,14.657l0.224,0.835c1.652,6.181,3.281,11.696,4.981,16.861
			c0.066,0.201,0.137,0.401,0.213,0.598c0.582,1.502,1.169,3,1.745,4.457c1.563,3.98,3.101,7.707,4.632,11.222
			c-5.832,2.693-11.171,5.202-13.864,6.613c-4.085,2.143-9.777,5.766-13.681,10.844c-2.813,3.647-4.114,7.848-5.158,11.222
			c-0.308,0.993-0.625,2.019-0.866,2.619c-7.667,19.136-17.636,38.431-31.373,60.722c-5.41,8.779-11.802,17.652-18.996,26.372
			c-1.128,1.367-2.239,2.741-3.348,4.114c-2.511,3.107-4.884,6.042-7.385,8.799c-0.529,0.582-1.366,1.359-2.252,2.181
			c-1.04,0.965-2.219,2.06-3.378,3.279c-0.682,0.718-1.275,1.514-1.765,2.373c-1.667,2.913-2.638,5.765-2.969,8.721
			c-0.083,0.742-0.098,1.49-0.046,2.235C22.696,317.906,28.735,325.813,33.225,330.915z"/>
		<path style="fill:#E2E2E2;" d="M31.888,329.578c3.078,3.491,6.37,6.574,9.184,9.13c0.375,0.341,0.771,0.659,1.186,0.951
			c4.653,3.282,9.462,6.051,11.914,7.41c2.186,1.211,4.478,2.482,6.842,3.327c1.119,0.473,2.237,0.914,3.353,1.321
			c-0.199,1.015-0.387,2.028-0.563,3.037c-0.615,3.511,0.317,7.117,2.557,9.89c5.119,6.337,11.855,10.918,21.197,14.417
			c0.277,0.104,0.558,0.197,0.841,0.281c0.547,0.161,1.073,0.318,1.525,0.459c15.945,5.006,32.476,8.076,48.463,11.046l4.089,0.761
			c16.779,3.134,34.102,5.135,51.482,5.946c3.504,0.165,6.877,0.248,10.148,0.248c5.617,0,10.925-0.244,16.051-0.734
			c4.151-0.4,8.337-1.047,12.813-1.981c0.948-0.199,1.939-0.432,2.936-0.67c0.115-0.028,0.23-0.057,0.344-0.087
			c1.818-0.489,3.813-1.001,6.108-1.568l0.171-0.043c2.021-0.499,4.788-1.184,7.649-2.952c2.135-1.32,3.816-3.259,4.821-5.559
			c0.109-0.251,0.217-0.504,0.321-0.758c1.419,0.61,2.944,0.95,4.498,0.997c2.074,0.06,3.923-0.086,5.553-0.217
			c0.504-0.041,1.006-0.083,1.522-0.114l1.244-0.074c2.258-0.133,4.817-0.283,7.415-0.65c4.961-0.688,10.333-1.827,16.42-3.481
			c6.674-1.812,13.203-4.074,19.404-6.722c0.215-0.093,0.428-0.19,0.637-0.294c2.489-1.235,4.941-2.558,7.299-3.938
			c0.261-0.153,0.541-0.312,0.832-0.478c3.973-2.264,11.367-6.478,12.692-15.121c0.271-1.767,0.155-3.572-0.34-5.29
			c-0.737-2.561-1.58-4.935-2.395-7.229c-0.815-2.298-1.586-4.468-2.13-6.498c-0.433-1.629-2.059-6.428-2.848-8.512
			c-0.728-2.243-1.48-4.477-2.162-6.735c-2.591-8.58-4.593-16.342-6.477-23.618c-5.042-19.489-9.092-39.714-12.388-56.93
			c-1.472-7.685-13.339-58.627-15.076-63.512c-1.897-5.3-4.845-9.852-8.757-13.524c-3.332-3.133-7.683-5.817-11.178-7.974
			c-0.595-0.367-1.164-0.723-1.7-1.055c-0.038-0.023-0.086-0.054-0.146-0.091c0.562-1.199,1.137-2.399,1.713-3.601
			c2.426-5.064,4.934-10.3,6.85-15.956c0.079-0.234,0.151-0.469,0.216-0.707c1.426-5.217,2.751-10.365,3.28-15.962
			c0.061-0.652,0.071-1.307,0.029-1.96c-0.594-9.188-1.79-17.642-3.656-25.846c-3.096-13.594-9.252-26.131-19.374-39.449
			c-10.685-14.066-24.37-22.98-39.576-25.78c-12.987-2.39-27.456,0.413-44.234,8.569c-25.719,12.512-47.269,32.954-59.128,56.091
			c-0.376,0.736-0.749,1.503-1.11,2.284c-0.181,0.392-0.341,0.793-0.481,1.201c-2.357,6.911-1.692,11.708-1.157,15.563
			c0.054,0.392,0.11,0.794,0.161,1.198c0.665,5.253,1.946,10.034,3.186,14.657l0.224,0.835c1.652,6.18,3.281,11.696,4.981,16.861
			c0.066,0.201,0.137,0.401,0.213,0.598c0.582,1.502,1.169,3,1.745,4.457c1.563,3.98,3.101,7.707,4.632,11.222
			c-5.832,2.693-11.171,5.202-13.864,6.613c-4.085,2.143-9.776,5.766-13.681,10.844c-2.813,3.647-4.114,7.848-5.158,11.222
			c-0.308,0.993-0.625,2.019-0.866,2.619c-7.667,19.136-17.636,38.431-31.373,60.722c-5.41,8.779-11.802,17.652-18.996,26.372
			c-1.128,1.367-2.239,2.741-3.348,4.114c-2.511,3.107-4.884,6.042-7.385,8.799c-0.529,0.582-1.366,1.359-2.252,2.181
			c-1.04,0.965-2.219,2.06-3.378,3.279c-0.682,0.718-1.275,1.514-1.765,2.373c-1.667,2.913-2.638,5.765-2.969,8.721
			c-0.082,0.742-0.098,1.49-0.046,2.235C21.359,316.569,27.397,324.475,31.888,329.578z"/>
		<path style="fill:#D4D4D4;" d="M30.55,328.241c3.078,3.491,6.37,6.574,9.184,9.13c0.375,0.341,0.771,0.659,1.186,0.951
			c4.653,3.282,9.462,6.051,11.914,7.41c2.186,1.211,4.478,2.482,6.842,3.327c1.119,0.473,2.237,0.914,3.353,1.321
			c-0.199,1.015-0.387,2.028-0.563,3.037c-0.615,3.511,0.317,7.117,2.557,9.89c5.119,6.337,11.855,10.919,21.197,14.417
			c0.276,0.104,0.558,0.197,0.841,0.281c0.547,0.161,1.072,0.318,1.525,0.459c15.945,5.006,32.476,8.076,48.463,11.046l4.089,0.761
			c16.779,3.134,34.102,5.135,51.482,5.946c3.504,0.165,6.877,0.248,10.148,0.248c5.617,0,10.925-0.244,16.051-0.734
			c4.151-0.4,8.337-1.046,12.813-1.981c0.948-0.199,1.939-0.432,2.936-0.67c0.115-0.028,0.23-0.057,0.344-0.087
			c1.817-0.489,3.813-1.001,6.108-1.568l0.171-0.043c2.021-0.499,4.788-1.184,7.649-2.952c2.135-1.32,3.816-3.259,4.821-5.559
			c0.109-0.251,0.217-0.504,0.321-0.758c1.419,0.609,2.944,0.95,4.498,0.997c2.073,0.06,3.922-0.086,5.553-0.217
			c0.504-0.041,1.006-0.082,1.522-0.114l1.244-0.074c2.258-0.133,4.817-0.283,7.415-0.65c4.962-0.688,10.333-1.827,16.42-3.481
			c6.674-1.812,13.203-4.074,19.404-6.722c0.215-0.093,0.428-0.19,0.637-0.294c2.489-1.235,4.941-2.558,7.299-3.938
			c0.261-0.153,0.541-0.312,0.832-0.478c3.973-2.264,11.367-6.477,12.692-15.121c0.271-1.767,0.155-3.572-0.34-5.29
			c-0.738-2.562-1.58-4.935-2.395-7.229c-0.815-2.298-1.585-4.468-2.13-6.498c-0.433-1.63-2.059-6.428-2.848-8.512
			c-0.728-2.243-1.48-4.477-2.162-6.735c-2.591-8.58-4.593-16.342-6.477-23.618c-5.042-19.489-9.092-39.714-12.388-56.93
			c-1.472-7.685-13.339-58.627-15.076-63.512c-1.897-5.3-4.846-9.852-8.757-13.524c-3.332-3.133-7.682-5.817-11.178-7.974
			c-0.595-0.367-1.164-0.723-1.7-1.055c-0.038-0.023-0.086-0.054-0.146-0.091c0.562-1.199,1.137-2.399,1.713-3.601
			c2.426-5.064,4.934-10.3,6.85-15.956c0.079-0.234,0.151-0.469,0.216-0.707c1.426-5.218,2.751-10.365,3.28-15.962
			c0.061-0.652,0.071-1.307,0.029-1.96c-0.594-9.188-1.791-17.642-3.656-25.846c-3.096-13.595-9.252-26.131-19.374-39.449
			c-10.685-14.066-24.37-22.98-39.576-25.78c-12.987-2.39-27.456,0.413-44.234,8.569c-25.719,12.512-47.269,32.954-59.128,56.091
			c-0.376,0.736-0.749,1.503-1.111,2.284c-0.181,0.392-0.341,0.793-0.481,1.201c-2.357,6.911-1.692,11.708-1.157,15.563
			c0.054,0.392,0.11,0.794,0.161,1.198c0.665,5.253,1.946,10.034,3.186,14.657l0.224,0.835c1.652,6.18,3.281,11.696,4.981,16.861
			c0.066,0.201,0.137,0.401,0.213,0.598c0.582,1.502,1.169,3,1.745,4.457c1.563,3.98,3.102,7.707,4.632,11.222
			c-5.832,2.693-11.171,5.202-13.864,6.613c-4.085,2.143-9.776,5.766-13.681,10.844c-2.813,3.647-4.114,7.848-5.158,11.222
			c-0.308,0.993-0.625,2.019-0.866,2.619c-7.667,19.136-17.636,38.431-31.373,60.722c-5.41,8.779-11.802,17.652-18.996,26.372
			c-1.128,1.367-2.239,2.741-3.348,4.114c-2.511,3.107-4.884,6.042-7.385,8.799c-0.529,0.582-1.366,1.359-2.252,2.181
			c-1.04,0.965-2.219,2.06-3.378,3.279c-0.682,0.718-1.275,1.514-1.766,2.373c-1.667,2.913-2.638,5.765-2.969,8.721
			c-0.083,0.742-0.098,1.49-0.046,2.235C20.021,315.232,26.06,323.138,30.55,328.241z"/>
		<path style="fill:#C5C5C5;" d="M29.213,326.903c3.078,3.491,6.37,6.574,9.184,9.13c0.375,0.341,0.771,0.659,1.186,0.951
			c4.654,3.282,9.462,6.051,11.914,7.41c2.186,1.211,4.478,2.482,6.842,3.327c1.119,0.473,2.237,0.914,3.353,1.321
			c-0.199,1.015-0.387,2.028-0.563,3.037c-0.615,3.511,0.317,7.117,2.557,9.89c5.119,6.337,11.855,10.918,21.197,14.417
			c0.277,0.104,0.558,0.197,0.841,0.281c0.547,0.161,1.072,0.318,1.525,0.459c15.945,5.006,32.476,8.076,48.463,11.046l4.089,0.761
			c16.779,3.134,34.102,5.135,51.482,5.946c3.504,0.165,6.877,0.248,10.148,0.248c5.617,0,10.925-0.244,16.051-0.734
			c4.151-0.4,8.337-1.047,12.813-1.981c0.948-0.199,1.939-0.432,2.936-0.67c0.115-0.028,0.23-0.057,0.344-0.087
			c1.817-0.489,3.813-1.001,6.108-1.568l0.171-0.043c2.021-0.499,4.788-1.184,7.649-2.952c2.135-1.32,3.816-3.259,4.821-5.559
			c0.109-0.251,0.217-0.504,0.321-0.758c1.418,0.609,2.944,0.95,4.498,0.997c2.073,0.06,3.922-0.086,5.553-0.217
			c0.504-0.041,1.006-0.083,1.521-0.114l1.244-0.074c2.258-0.133,4.817-0.283,7.415-0.65c4.962-0.688,10.333-1.827,16.42-3.481
			c6.674-1.812,13.203-4.074,19.404-6.722c0.215-0.093,0.428-0.19,0.637-0.294c2.489-1.235,4.941-2.558,7.299-3.938
			c0.261-0.153,0.541-0.312,0.832-0.478c3.973-2.264,11.367-6.477,12.692-15.121c0.271-1.767,0.155-3.572-0.34-5.29
			c-0.737-2.561-1.58-4.935-2.395-7.229c-0.816-2.298-1.586-4.468-2.13-6.498c-0.433-1.63-2.059-6.428-2.848-8.512
			c-0.728-2.243-1.48-4.477-2.162-6.735c-2.591-8.58-4.593-16.342-6.477-23.618c-5.042-19.489-9.092-39.714-12.388-56.93
			c-1.472-7.685-13.339-58.627-15.076-63.512c-1.897-5.3-4.845-9.852-8.757-13.524c-3.332-3.133-7.682-5.817-11.178-7.974
			c-0.595-0.367-1.164-0.723-1.7-1.055c-0.038-0.023-0.086-0.054-0.146-0.091c0.562-1.199,1.137-2.399,1.713-3.601
			c2.426-5.064,4.934-10.3,6.85-15.956c0.079-0.234,0.151-0.469,0.216-0.707c1.426-5.218,2.751-10.365,3.28-15.962
			c0.061-0.652,0.071-1.307,0.029-1.96c-0.594-9.188-1.79-17.642-3.656-25.846c-3.096-13.595-9.252-26.131-19.374-39.449
			c-10.685-14.066-24.37-22.981-39.576-25.78c-12.987-2.39-27.456,0.413-44.233,8.569c-25.719,12.512-47.269,32.954-59.128,56.091
			c-0.376,0.736-0.749,1.503-1.11,2.284c-0.181,0.392-0.341,0.793-0.481,1.201c-2.357,6.911-1.692,11.708-1.157,15.563
			c0.054,0.392,0.11,0.794,0.161,1.198c0.665,5.253,1.946,10.034,3.186,14.657l0.224,0.835c1.652,6.181,3.281,11.696,4.981,16.861
			c0.066,0.201,0.137,0.401,0.213,0.598c0.582,1.502,1.169,3,1.745,4.457c1.563,3.98,3.101,7.707,4.632,11.222
			c-5.832,2.693-11.171,5.202-13.864,6.613c-4.085,2.143-9.776,5.766-13.681,10.844c-2.813,3.647-4.113,7.848-5.158,11.222
			c-0.308,0.993-0.625,2.019-0.866,2.619c-7.667,19.136-17.636,38.431-31.373,60.722c-5.41,8.779-11.802,17.652-18.996,26.372
			c-1.128,1.367-2.239,2.741-3.348,4.114c-2.511,3.107-4.884,6.042-7.385,8.799c-0.529,0.582-1.366,1.359-2.252,2.181
			c-1.04,0.965-2.219,2.06-3.378,3.279c-0.682,0.718-1.275,1.514-1.765,2.373c-1.667,2.913-2.638,5.765-2.969,8.721
			c-0.083,0.742-0.098,1.49-0.046,2.235C18.684,313.894,24.723,321.801,29.213,326.903z"/>
		<path style="fill:#B7B7B7;" d="M27.876,325.566c3.078,3.491,6.37,6.574,9.184,9.13c0.375,0.341,0.771,0.659,1.186,0.951
			c4.653,3.282,9.462,6.051,11.914,7.41c2.186,1.211,4.478,2.482,6.842,3.327c1.119,0.473,2.237,0.914,3.353,1.321
			c-0.199,1.015-0.387,2.028-0.563,3.037c-0.615,3.511,0.317,7.117,2.557,9.89c5.119,6.337,11.855,10.918,21.197,14.417
			c0.276,0.104,0.558,0.197,0.841,0.281c0.547,0.161,1.072,0.318,1.525,0.459c15.945,5.006,32.476,8.076,48.463,11.046l4.089,0.761
			c16.779,3.134,34.102,5.135,51.482,5.946c3.504,0.165,6.877,0.248,10.148,0.248c5.617,0,10.925-0.244,16.051-0.734
			c4.151-0.4,8.337-1.047,12.813-1.981c0.948-0.199,1.939-0.432,2.936-0.67c0.115-0.028,0.23-0.057,0.344-0.087
			c1.817-0.489,3.813-1.001,6.108-1.568l0.171-0.043c2.021-0.499,4.788-1.184,7.649-2.952c2.135-1.32,3.816-3.259,4.821-5.559
			c0.109-0.251,0.217-0.504,0.321-0.758c1.419,0.609,2.944,0.95,4.498,0.997c2.073,0.06,3.922-0.086,5.553-0.217
			c0.504-0.041,1.006-0.083,1.522-0.114l1.244-0.074c2.258-0.133,4.817-0.283,7.415-0.65c4.961-0.687,10.333-1.827,16.42-3.481
			c6.674-1.812,13.203-4.074,19.404-6.722c0.215-0.093,0.428-0.19,0.637-0.294c2.489-1.235,4.941-2.558,7.299-3.938
			c0.261-0.153,0.541-0.312,0.832-0.478c3.973-2.264,11.367-6.477,12.692-15.121c0.271-1.767,0.155-3.572-0.34-5.29
			c-0.738-2.561-1.58-4.935-2.395-7.229c-0.815-2.298-1.586-4.468-2.13-6.498c-0.433-1.63-2.059-6.428-2.848-8.513
			c-0.728-2.243-1.48-4.477-2.162-6.735c-2.591-8.58-4.593-16.342-6.477-23.618c-5.042-19.489-9.092-39.714-12.388-56.93
			c-1.472-7.685-13.339-58.627-15.076-63.512c-1.897-5.3-4.846-9.852-8.757-13.524c-3.332-3.133-7.683-5.817-11.178-7.974
			c-0.595-0.366-1.164-0.723-1.7-1.055c-0.038-0.023-0.086-0.054-0.146-0.091c0.562-1.199,1.137-2.399,1.713-3.601
			c2.426-5.064,4.934-10.3,6.85-15.956c0.079-0.234,0.151-0.469,0.216-0.707c1.426-5.218,2.751-10.365,3.28-15.962
			c0.061-0.652,0.071-1.307,0.029-1.96c-0.594-9.188-1.79-17.642-3.656-25.846c-3.096-13.595-9.252-26.131-19.374-39.449
			c-10.685-14.066-24.37-22.981-39.576-25.78c-12.987-2.39-27.456,0.413-44.233,8.569c-25.719,12.512-47.269,32.955-59.128,56.091
			c-0.376,0.736-0.749,1.503-1.111,2.284c-0.181,0.392-0.341,0.793-0.481,1.201c-2.357,6.911-1.692,11.708-1.157,15.563
			c0.054,0.392,0.11,0.794,0.161,1.198c0.665,5.253,1.946,10.034,3.186,14.657l0.224,0.835c1.652,6.181,3.281,11.696,4.981,16.861
			c0.066,0.201,0.137,0.401,0.213,0.598c0.582,1.502,1.169,3,1.745,4.457c1.563,3.98,3.101,7.707,4.632,11.222
			c-5.832,2.693-11.171,5.202-13.864,6.613c-4.085,2.143-9.776,5.766-13.681,10.844c-2.813,3.647-4.114,7.848-5.158,11.222
			c-0.308,0.993-0.625,2.019-0.866,2.619c-7.667,19.136-17.636,38.431-31.373,60.722c-5.41,8.779-11.802,17.652-18.996,26.372
			c-1.128,1.367-2.239,2.741-3.348,4.114c-2.511,3.107-4.884,6.042-7.385,8.799c-0.529,0.582-1.366,1.359-2.252,2.181
			c-1.04,0.965-2.219,2.06-3.378,3.279c-0.682,0.718-1.275,1.514-1.766,2.373c-1.667,2.913-2.637,5.765-2.969,8.721
			c-0.083,0.742-0.098,1.49-0.046,2.235C17.347,312.557,23.385,320.464,27.876,325.566z"/>
		<path style="fill:#A8A8A8;" d="M26.538,324.229c3.078,3.491,6.37,6.574,9.184,9.13c0.375,0.341,0.771,0.659,1.186,0.951
			c4.653,3.282,9.462,6.051,11.914,7.41c2.186,1.211,4.478,2.482,6.842,3.327c1.119,0.473,2.237,0.914,3.353,1.321
			c-0.198,1.015-0.387,2.028-0.563,3.037c-0.615,3.511,0.317,7.117,2.557,9.89c5.119,6.337,11.855,10.919,21.197,14.417
			c0.276,0.104,0.558,0.197,0.841,0.281c0.547,0.161,1.073,0.318,1.525,0.459c15.945,5.006,32.476,8.076,48.463,11.046l4.089,0.761
			c16.779,3.134,34.102,5.135,51.482,5.946c3.504,0.165,6.877,0.248,10.147,0.248c5.617,0,10.925-0.244,16.051-0.734
			c4.151-0.4,8.337-1.046,12.813-1.981c0.948-0.199,1.939-0.432,2.936-0.67c0.115-0.028,0.23-0.057,0.344-0.087
			c1.817-0.489,3.813-1.001,6.108-1.568l0.171-0.043c2.021-0.499,4.788-1.184,7.649-2.952c2.135-1.32,3.816-3.259,4.822-5.559
			c0.109-0.251,0.217-0.504,0.321-0.758c1.419,0.609,2.944,0.95,4.498,0.997c2.074,0.06,3.923-0.086,5.553-0.217
			c0.504-0.041,1.006-0.083,1.521-0.114l1.244-0.074c2.258-0.133,4.817-0.283,7.415-0.65c4.962-0.687,10.333-1.827,16.42-3.481
			c6.674-1.812,13.203-4.074,19.404-6.722c0.215-0.093,0.428-0.19,0.637-0.294c2.489-1.235,4.941-2.558,7.299-3.938
			c0.261-0.153,0.541-0.312,0.832-0.478c3.973-2.264,11.367-6.478,12.692-15.121c0.271-1.767,0.155-3.572-0.34-5.29
			c-0.738-2.561-1.58-4.935-2.395-7.229c-0.815-2.298-1.585-4.469-2.13-6.498c-0.433-1.63-2.059-6.428-2.848-8.512
			c-0.728-2.243-1.48-4.477-2.162-6.735c-2.591-8.58-4.593-16.342-6.477-23.618c-5.042-19.489-9.092-39.714-12.388-56.93
			c-1.472-7.685-13.339-58.627-15.076-63.512c-1.897-5.3-4.846-9.852-8.757-13.524c-3.332-3.132-7.683-5.817-11.178-7.974
			c-0.595-0.366-1.164-0.723-1.7-1.055c-0.038-0.023-0.086-0.054-0.146-0.091c0.562-1.199,1.137-2.399,1.713-3.6
			c2.426-5.064,4.934-10.3,6.85-15.956c0.079-0.234,0.151-0.469,0.216-0.707c1.426-5.218,2.751-10.365,3.28-15.962
			c0.061-0.652,0.071-1.307,0.029-1.96c-0.594-9.188-1.79-17.642-3.656-25.846c-3.096-13.595-9.252-26.131-19.374-39.449
			c-10.685-14.066-24.37-22.98-39.576-25.78c-12.987-2.39-27.456,0.413-44.233,8.569C141.42,38.86,119.869,59.302,108.01,82.439
			c-0.376,0.736-0.749,1.503-1.111,2.284c-0.181,0.392-0.341,0.793-0.48,1.201c-2.357,6.911-1.692,11.708-1.157,15.563
			c0.054,0.392,0.11,0.794,0.161,1.198c0.665,5.253,1.946,10.034,3.186,14.657l0.224,0.835c1.652,6.181,3.281,11.696,4.981,16.861
			c0.066,0.201,0.137,0.401,0.213,0.598c0.582,1.502,1.169,3,1.745,4.457c1.563,3.98,3.101,7.707,4.632,11.222
			c-5.832,2.693-11.171,5.202-13.864,6.613c-4.085,2.143-9.776,5.766-13.681,10.844c-2.813,3.647-4.114,7.848-5.158,11.222
			c-0.308,0.993-0.625,2.019-0.866,2.619c-7.667,19.136-17.636,38.431-31.373,60.722c-5.41,8.779-11.802,17.652-18.996,26.372
			c-1.128,1.367-2.239,2.741-3.348,4.114c-2.511,3.107-4.884,6.042-7.385,8.799c-0.529,0.582-1.366,1.359-2.252,2.181
			c-1.04,0.965-2.219,2.06-3.378,3.279c-0.682,0.718-1.275,1.514-1.765,2.373c-1.667,2.913-2.638,5.765-2.969,8.721
			c-0.083,0.742-0.098,1.49-0.046,2.235C16.01,311.22,22.048,319.126,26.538,324.229z"/>
		<path style="fill:#9A9A9A;" d="M25.201,322.891c3.078,3.491,6.37,6.574,9.184,9.13c0.375,0.341,0.771,0.659,1.186,0.951
			c4.654,3.282,9.462,6.051,11.914,7.41c2.186,1.211,4.478,2.482,6.842,3.327c1.119,0.473,2.237,0.914,3.353,1.321
			c-0.199,1.015-0.387,2.028-0.563,3.037c-0.615,3.511,0.317,7.117,2.557,9.89c5.119,6.337,11.855,10.919,21.197,14.417
			c0.276,0.104,0.558,0.197,0.841,0.281c0.547,0.161,1.073,0.318,1.525,0.459c15.945,5.006,32.476,8.076,48.463,11.046l4.089,0.761
			c16.779,3.134,34.102,5.135,51.482,5.946c3.504,0.165,6.877,0.248,10.147,0.248c5.617,0,10.925-0.244,16.051-0.734
			c4.151-0.4,8.337-1.046,12.813-1.981c0.948-0.199,1.939-0.432,2.936-0.67c0.115-0.028,0.23-0.057,0.344-0.087
			c1.817-0.489,3.813-1.001,6.108-1.568l0.171-0.043c2.021-0.499,4.788-1.184,7.649-2.952c2.135-1.32,3.816-3.259,4.822-5.559
			c0.109-0.251,0.217-0.504,0.321-0.758c1.419,0.609,2.944,0.95,4.498,0.997c2.074,0.06,3.923-0.086,5.553-0.217
			c0.504-0.041,1.006-0.083,1.521-0.114l1.244-0.074c2.258-0.133,4.817-0.283,7.415-0.65c4.961-0.687,10.333-1.827,16.42-3.481
			c6.674-1.812,13.203-4.074,19.404-6.722c0.215-0.093,0.428-0.19,0.637-0.294c2.489-1.235,4.941-2.558,7.299-3.938
			c0.261-0.153,0.541-0.312,0.832-0.478c3.972-2.264,11.367-6.478,12.692-15.121c0.271-1.767,0.155-3.572-0.34-5.29
			c-0.738-2.561-1.58-4.935-2.396-7.229c-0.815-2.298-1.585-4.469-2.13-6.498c-0.433-1.63-2.059-6.428-2.848-8.512
			c-0.728-2.243-1.48-4.477-2.162-6.735c-2.591-8.58-4.593-16.342-6.477-23.618c-5.042-19.489-9.092-39.714-12.388-56.93
			c-1.472-7.685-13.339-58.627-15.076-63.512c-1.897-5.3-4.846-9.852-8.757-13.524c-3.332-3.133-7.683-5.817-11.178-7.974
			c-0.595-0.366-1.164-0.723-1.7-1.055c-0.038-0.023-0.086-0.054-0.146-0.091c0.562-1.199,1.137-2.399,1.713-3.6
			c2.426-5.064,4.934-10.3,6.85-15.956c0.079-0.234,0.151-0.469,0.216-0.707c1.426-5.218,2.751-10.365,3.28-15.962
			c0.061-0.652,0.072-1.307,0.029-1.96c-0.594-9.188-1.79-17.642-3.656-25.846c-3.096-13.594-9.252-26.131-19.374-39.449
			c-10.685-14.066-24.37-22.98-39.576-25.78c-12.987-2.39-27.456,0.413-44.233,8.569c-25.719,12.512-47.269,32.955-59.128,56.091
			c-0.376,0.736-0.749,1.503-1.11,2.284c-0.181,0.392-0.341,0.793-0.48,1.201c-2.357,6.911-1.692,11.708-1.157,15.563
			c0.054,0.392,0.11,0.794,0.161,1.198c0.665,5.253,1.946,10.034,3.186,14.657l0.224,0.835c1.652,6.181,3.281,11.696,4.981,16.861
			c0.066,0.201,0.137,0.401,0.213,0.598c0.582,1.502,1.169,3,1.745,4.457c1.563,3.98,3.101,7.707,4.632,11.222
			c-5.832,2.693-11.171,5.202-13.864,6.613c-4.085,2.143-9.776,5.766-13.681,10.844c-2.813,3.647-4.114,7.848-5.158,11.222
			c-0.308,0.993-0.625,2.019-0.866,2.619c-7.667,19.136-17.636,38.431-31.373,60.722c-5.41,8.779-11.802,17.652-18.996,26.372
			c-1.128,1.367-2.239,2.741-3.348,4.114c-2.511,3.107-4.884,6.042-7.385,8.799c-0.529,0.582-1.366,1.359-2.252,2.181
			c-1.04,0.965-2.219,2.06-3.378,3.279c-0.682,0.718-1.275,1.514-1.766,2.373c-1.667,2.913-2.637,5.765-2.969,8.721
			c-0.083,0.742-0.098,1.49-0.046,2.235C14.672,309.882,20.711,317.789,25.201,322.891z"/>
		<path style="fill:#8B8B8B;" d="M23.864,321.554c3.078,3.491,6.37,6.574,9.184,9.13c0.375,0.341,0.771,0.659,1.186,0.951
			c4.653,3.282,9.462,6.051,11.914,7.41c2.186,1.211,4.478,2.482,6.842,3.327c1.119,0.473,2.237,0.914,3.353,1.321
			c-0.199,1.015-0.387,2.028-0.563,3.037c-0.615,3.511,0.317,7.117,2.557,9.89c5.119,6.337,11.855,10.918,21.197,14.417
			c0.276,0.104,0.558,0.197,0.841,0.281c0.547,0.161,1.073,0.318,1.525,0.459c15.945,5.006,32.476,8.076,48.463,11.046l4.089,0.761
			c16.779,3.134,34.102,5.135,51.482,5.946c3.504,0.165,6.877,0.248,10.148,0.248c5.617,0,10.925-0.244,16.051-0.734
			c4.151-0.4,8.337-1.047,12.813-1.981c0.948-0.199,1.939-0.432,2.936-0.67c0.115-0.028,0.23-0.057,0.344-0.087
			c1.817-0.489,3.813-1.001,6.108-1.568l0.171-0.043c2.021-0.499,4.788-1.184,7.649-2.952c2.135-1.32,3.816-3.259,4.821-5.559
			c0.109-0.251,0.217-0.504,0.321-0.758c1.419,0.61,2.944,0.95,4.498,0.997c2.074,0.06,3.923-0.086,5.553-0.217
			c0.504-0.041,1.006-0.083,1.521-0.114l1.244-0.074c2.258-0.133,4.817-0.283,7.415-0.65c4.961-0.688,10.333-1.827,16.42-3.481
			c6.674-1.812,13.203-4.074,19.404-6.722c0.215-0.093,0.428-0.19,0.637-0.294c2.489-1.235,4.941-2.558,7.299-3.938
			c0.261-0.153,0.541-0.312,0.832-0.478c3.973-2.264,11.367-6.477,12.692-15.121c0.271-1.767,0.155-3.572-0.34-5.29
			c-0.737-2.561-1.58-4.935-2.395-7.229c-0.815-2.298-1.586-4.468-2.13-6.498c-0.433-1.63-2.059-6.428-2.848-8.512
			c-0.728-2.243-1.48-4.477-2.162-6.735c-2.591-8.58-4.593-16.342-6.477-23.618c-5.042-19.489-9.092-39.714-12.388-56.93
			c-1.472-7.685-13.339-58.627-15.076-63.512c-1.897-5.3-4.846-9.852-8.757-13.524c-3.332-3.133-7.683-5.817-11.178-7.974
			c-0.595-0.367-1.164-0.723-1.7-1.055c-0.038-0.023-0.086-0.054-0.146-0.091c0.562-1.199,1.137-2.399,1.713-3.601
			c2.426-5.064,4.934-10.3,6.85-15.956c0.079-0.234,0.151-0.469,0.216-0.707c1.426-5.217,2.751-10.365,3.279-15.962
			c0.061-0.652,0.072-1.307,0.029-1.96c-0.594-9.188-1.79-17.642-3.656-25.846c-3.096-13.594-9.252-26.13-19.374-39.449
			c-10.685-14.066-24.37-22.98-39.576-25.78c-12.987-2.39-27.456,0.413-44.234,8.569c-25.719,12.512-47.269,32.954-59.128,56.091
			c-0.376,0.736-0.749,1.503-1.111,2.284c-0.181,0.392-0.341,0.793-0.481,1.201c-2.357,6.911-1.692,11.708-1.157,15.563
			c0.054,0.392,0.11,0.794,0.161,1.198c0.665,5.253,1.946,10.034,3.186,14.657l0.224,0.835c1.652,6.18,3.281,11.696,4.981,16.861
			c0.066,0.201,0.137,0.401,0.213,0.598c0.582,1.502,1.169,3,1.745,4.457c1.563,3.98,3.101,7.707,4.632,11.222
			c-5.832,2.693-11.171,5.202-13.864,6.613c-4.085,2.143-9.776,5.766-13.681,10.844c-2.813,3.647-4.114,7.848-5.158,11.222
			c-0.308,0.993-0.625,2.019-0.866,2.619c-7.667,19.136-17.636,38.431-31.373,60.722c-5.41,8.779-11.802,17.652-18.996,26.372
			c-1.128,1.367-2.239,2.741-3.348,4.114c-2.511,3.107-4.884,6.042-7.385,8.799c-0.529,0.582-1.366,1.359-2.252,2.181
			c-1.04,0.965-2.219,2.06-3.378,3.279c-0.682,0.718-1.275,1.514-1.766,2.373c-1.667,2.913-2.638,5.765-2.969,8.721
			c-0.083,0.742-0.098,1.49-0.046,2.235C13.335,308.545,19.374,316.452,23.864,321.554z"/>
		<path style="fill:#7D7D7D;" d="M22.526,320.217c3.078,3.491,6.37,6.574,9.184,9.13c0.375,0.341,0.771,0.659,1.186,0.951
			c4.653,3.282,9.462,6.051,11.914,7.41c2.186,1.211,4.478,2.482,6.842,3.327c1.119,0.473,2.237,0.914,3.353,1.321
			c-0.199,1.015-0.387,2.028-0.563,3.037c-0.615,3.511,0.317,7.117,2.557,9.89c5.119,6.337,11.855,10.919,21.197,14.417
			c0.277,0.104,0.558,0.197,0.841,0.281c0.547,0.161,1.072,0.318,1.525,0.459c15.945,5.006,32.476,8.076,48.463,11.046l4.089,0.761
			c16.779,3.134,34.102,5.135,51.482,5.946c3.504,0.165,6.877,0.248,10.148,0.248c5.617,0,10.925-0.244,16.051-0.734
			c4.151-0.4,8.337-1.047,12.813-1.981c0.948-0.2,1.939-0.432,2.936-0.67c0.115-0.028,0.23-0.057,0.344-0.087
			c1.818-0.489,3.813-1.001,6.108-1.568l0.171-0.043c2.021-0.499,4.788-1.184,7.649-2.952c2.135-1.32,3.816-3.259,4.821-5.559
			c0.109-0.251,0.217-0.504,0.321-0.758c1.418,0.61,2.944,0.95,4.498,0.997c2.074,0.06,3.922-0.086,5.553-0.217
			c0.504-0.041,1.006-0.082,1.522-0.114l1.244-0.074c2.258-0.133,4.817-0.283,7.415-0.65c4.962-0.688,10.333-1.827,16.42-3.481
			c6.674-1.812,13.203-4.074,19.404-6.722c0.215-0.093,0.428-0.19,0.637-0.294c2.489-1.235,4.941-2.558,7.299-3.938
			c0.261-0.153,0.541-0.312,0.832-0.478c3.973-2.264,11.367-6.477,12.692-15.121c0.271-1.767,0.155-3.572-0.34-5.29
			c-0.738-2.561-1.58-4.935-2.395-7.229c-0.815-2.298-1.586-4.468-2.13-6.498c-0.433-1.63-2.059-6.428-2.848-8.512
			c-0.728-2.243-1.48-4.477-2.162-6.735c-2.591-8.58-4.593-16.342-6.477-23.618c-5.042-19.489-9.092-39.714-12.388-56.93
			c-1.472-7.685-13.339-58.627-15.076-63.512c-1.897-5.3-4.845-9.852-8.757-13.524c-3.333-3.132-7.683-5.817-11.178-7.974
			c-0.595-0.367-1.164-0.723-1.7-1.055c-0.038-0.023-0.086-0.054-0.146-0.091c0.562-1.199,1.137-2.399,1.713-3.601
			c2.426-5.064,4.934-10.3,6.85-15.956c0.079-0.234,0.151-0.469,0.216-0.707c1.426-5.217,2.751-10.365,3.28-15.962
			c0.061-0.652,0.071-1.307,0.029-1.96c-0.594-9.188-1.791-17.642-3.656-25.846c-3.096-13.595-9.252-26.131-19.374-39.449
			c-10.685-14.066-24.37-22.981-39.576-25.78c-12.987-2.39-27.456,0.413-44.233,8.569c-25.719,12.512-47.269,32.954-59.128,56.091
			c-0.376,0.736-0.749,1.503-1.11,2.284c-0.181,0.392-0.341,0.793-0.481,1.201c-2.357,6.911-1.692,11.708-1.157,15.563
			c0.054,0.392,0.11,0.794,0.161,1.198c0.665,5.253,1.946,10.034,3.186,14.657l0.224,0.835c1.652,6.181,3.281,11.696,4.981,16.861
			c0.066,0.201,0.137,0.401,0.213,0.598c0.582,1.502,1.169,3,1.745,4.457c1.563,3.98,3.101,7.707,4.632,11.222
			c-5.832,2.693-11.171,5.202-13.864,6.613c-4.085,2.143-9.777,5.766-13.681,10.844c-2.813,3.647-4.114,7.848-5.158,11.222
			c-0.308,0.993-0.625,2.019-0.866,2.619c-7.667,19.136-17.636,38.431-31.373,60.722c-5.41,8.779-11.802,17.652-18.996,26.372
			c-1.128,1.367-2.239,2.741-3.348,4.114c-2.511,3.107-4.884,6.042-7.385,8.799c-0.529,0.582-1.366,1.359-2.252,2.181
			c-1.04,0.965-2.219,2.06-3.378,3.279c-0.682,0.718-1.275,1.514-1.766,2.373c-1.667,2.913-2.638,5.765-2.969,8.721
			c-0.082,0.742-0.098,1.49-0.046,2.235C11.998,307.208,18.036,315.114,22.526,320.217z"/>
		<path style="fill:#6E6E6E;" d="M21.189,318.879c3.078,3.491,6.37,6.574,9.184,9.13c0.375,0.341,0.771,0.659,1.186,0.951
			c4.653,3.282,9.462,6.051,11.914,7.41c2.186,1.211,4.478,2.482,6.842,3.327c1.119,0.473,2.237,0.914,3.353,1.321
			c-0.198,1.015-0.387,2.028-0.563,3.037c-0.615,3.511,0.317,7.117,2.557,9.89c5.119,6.337,11.855,10.918,21.197,14.417
			c0.276,0.104,0.558,0.197,0.841,0.281c0.547,0.161,1.072,0.318,1.525,0.459c15.945,5.006,32.476,8.076,48.463,11.046l4.089,0.761
			c16.779,3.134,34.102,5.135,51.482,5.946c3.504,0.165,6.877,0.248,10.148,0.248c5.617,0,10.925-0.244,16.051-0.734
			c4.151-0.4,8.337-1.046,12.813-1.981c0.948-0.199,1.939-0.432,2.936-0.67c0.115-0.028,0.23-0.057,0.344-0.087
			c1.817-0.489,3.813-1.001,6.108-1.568l0.171-0.043c2.021-0.499,4.788-1.184,7.649-2.952c2.135-1.32,3.816-3.259,4.821-5.559
			c0.109-0.251,0.217-0.504,0.321-0.758c1.419,0.609,2.944,0.95,4.498,0.997c2.073,0.06,3.922-0.086,5.553-0.217
			c0.504-0.041,1.006-0.082,1.521-0.114l1.244-0.074c2.258-0.133,4.817-0.283,7.415-0.65c4.962-0.688,10.333-1.827,16.42-3.481
			c6.674-1.812,13.203-4.074,19.404-6.722c0.215-0.093,0.428-0.19,0.637-0.294c2.489-1.235,4.941-2.558,7.299-3.938
			c0.261-0.153,0.541-0.312,0.832-0.478c3.973-2.264,11.367-6.477,12.692-15.121c0.271-1.767,0.155-3.572-0.34-5.29
			c-0.737-2.561-1.58-4.935-2.395-7.229c-0.815-2.298-1.585-4.468-2.13-6.498c-0.433-1.63-2.059-6.428-2.848-8.512
			c-0.728-2.243-1.48-4.477-2.162-6.735c-2.591-8.58-4.593-16.342-6.477-23.618c-5.042-19.489-9.092-39.714-12.388-56.93
			c-1.472-7.685-13.339-58.627-15.076-63.512c-1.897-5.3-4.846-9.852-8.757-13.524c-3.332-3.132-7.683-5.817-11.178-7.974
			c-0.595-0.367-1.164-0.723-1.7-1.055c-0.038-0.023-0.086-0.054-0.146-0.091c0.562-1.199,1.137-2.399,1.713-3.601
			c2.426-5.064,4.934-10.3,6.85-15.956c0.079-0.234,0.151-0.469,0.216-0.707c1.426-5.218,2.751-10.365,3.28-15.962
			c0.061-0.652,0.071-1.307,0.029-1.96c-0.594-9.188-1.791-17.642-3.656-25.846c-3.096-13.595-9.252-26.131-19.374-39.449
			c-10.685-14.066-24.37-22.981-39.576-25.78c-12.987-2.39-27.456,0.413-44.234,8.569C136.07,33.511,114.52,53.953,102.661,77.09
			c-0.376,0.736-0.749,1.503-1.11,2.284c-0.181,0.392-0.341,0.793-0.481,1.201c-2.357,6.911-1.692,11.708-1.157,15.563
			c0.054,0.392,0.11,0.794,0.161,1.198c0.665,5.253,1.946,10.034,3.186,14.657l0.224,0.835c1.652,6.181,3.281,11.696,4.981,16.861
			c0.066,0.201,0.137,0.401,0.213,0.598c0.582,1.502,1.169,3,1.745,4.457c1.563,3.98,3.101,7.707,4.632,11.222
			c-5.832,2.693-11.171,5.202-13.864,6.613c-4.085,2.143-9.776,5.766-13.681,10.844c-2.813,3.647-4.114,7.848-5.158,11.222
			c-0.308,0.993-0.625,2.019-0.866,2.619c-7.667,19.136-17.636,38.431-31.373,60.722c-5.41,8.779-11.802,17.652-18.996,26.372
			c-1.128,1.367-2.239,2.741-3.348,4.114c-2.511,3.107-4.884,6.042-7.385,8.799c-0.529,0.582-1.366,1.359-2.252,2.181
			c-1.04,0.965-2.219,2.06-3.378,3.279c-0.682,0.718-1.275,1.514-1.765,2.373c-1.667,2.913-2.638,5.765-2.969,8.721
			c-0.083,0.742-0.098,1.49-0.046,2.235C10.66,305.87,16.699,313.777,21.189,318.879z"/>
		<path style="fill:#606060;" d="M19.852,317.542c3.078,3.491,6.37,6.574,9.184,9.13c0.375,0.341,0.771,0.659,1.186,0.951
			c4.653,3.282,9.462,6.051,11.914,7.41c2.186,1.211,4.478,2.482,6.842,3.327c1.119,0.473,2.237,0.914,3.353,1.321
			c-0.198,1.015-0.387,2.028-0.563,3.037c-0.615,3.511,0.317,7.117,2.557,9.89c5.119,6.337,11.855,10.918,21.197,14.417
			c0.276,0.104,0.558,0.197,0.841,0.281c0.547,0.161,1.073,0.318,1.525,0.459c15.945,5.006,32.476,8.076,48.463,11.046l4.089,0.761
			c16.779,3.134,34.102,5.135,51.482,5.946c3.504,0.165,6.877,0.248,10.147,0.248c5.617,0,10.925-0.244,16.051-0.734
			c4.151-0.4,8.337-1.047,12.813-1.981c0.948-0.199,1.939-0.432,2.936-0.67c0.115-0.028,0.23-0.057,0.344-0.087
			c1.817-0.489,3.813-1.001,6.108-1.568l0.171-0.043c2.021-0.499,4.788-1.184,7.649-2.952c2.135-1.32,3.816-3.259,4.821-5.559
			c0.109-0.251,0.217-0.504,0.321-0.758c1.419,0.609,2.944,0.95,4.498,0.997c2.073,0.06,3.922-0.086,5.553-0.217
			c0.504-0.041,1.006-0.083,1.521-0.114l1.244-0.074c2.258-0.133,4.817-0.283,7.415-0.65c4.962-0.687,10.333-1.827,16.42-3.481
			c6.674-1.812,13.203-4.074,19.404-6.722c0.215-0.093,0.428-0.19,0.637-0.294c2.489-1.235,4.941-2.558,7.299-3.938
			c0.261-0.153,0.541-0.312,0.832-0.478c3.973-2.264,11.367-6.477,12.692-15.121c0.271-1.767,0.155-3.572-0.34-5.29
			c-0.738-2.561-1.58-4.935-2.395-7.229c-0.815-2.298-1.586-4.468-2.13-6.498c-0.433-1.63-2.059-6.428-2.848-8.513
			c-0.728-2.243-1.449-4.486-2.162-6.735c-2.474-8.614-4.593-16.342-6.477-23.618c-5.042-19.489-9.092-39.714-12.388-56.93
			c-1.472-7.685-13.339-58.627-15.076-63.512c-1.897-5.3-4.846-9.852-8.757-13.524c-3.332-3.132-7.683-5.817-11.178-7.974
			c-0.595-0.367-1.166-0.719-1.7-1.055c-0.038-0.023-0.086-0.054-0.146-0.091c0.562-1.199,1.137-2.399,1.713-3.6
			c2.426-5.064,4.934-10.3,6.85-15.956c0.079-0.234,0.151-0.469,0.216-0.707c1.426-5.218,2.751-10.365,3.28-15.962
			c0.061-0.652,0.071-1.307,0.029-1.96c-0.594-9.188-1.79-17.642-3.656-25.846c-3.096-13.595-9.252-26.131-19.374-39.449
			c-10.685-14.066-24.37-22.98-39.576-25.78c-12.987-2.39-27.456,0.413-44.233,8.569c-25.719,12.512-47.269,32.954-59.128,56.091
			c-0.376,0.736-0.749,1.503-1.111,2.284c-0.181,0.392-0.341,0.793-0.481,1.201c-2.357,6.911-1.692,11.708-1.157,15.563
			c0.054,0.392,0.11,0.794,0.161,1.198c0.665,5.253,1.946,10.034,3.186,14.657l0.224,0.835c1.652,6.181,3.281,11.696,4.981,16.861
			c0.066,0.201,0.137,0.401,0.213,0.598c0.582,1.502,1.169,3,1.745,4.457c1.563,3.98,3.101,7.707,4.632,11.222
			c-5.832,2.693-11.171,5.202-13.864,6.613c-4.085,2.143-9.776,5.766-13.681,10.844c-2.813,3.647-4.114,7.848-5.158,11.222
			c-0.308,0.993-0.625,2.019-0.866,2.619c-7.667,19.136-17.636,38.431-31.373,60.722c-5.41,8.779-11.802,17.652-18.996,26.372
			c-1.128,1.367-2.239,2.741-3.348,4.114c-2.511,3.107-4.884,6.042-7.385,8.799c-0.529,0.582-1.366,1.359-2.252,2.181
			c-1.04,0.965-2.219,2.06-3.378,3.279c-0.682,0.718-1.275,1.514-1.766,2.373c-1.667,2.913-2.637,5.765-2.969,8.721
			c-0.083,0.742-0.098,1.49-0.046,2.235C9.323,304.533,15.362,312.44,19.852,317.542z"/>
	</g>
	<path style="fill:#FFFFFF;" d="M19.852,317.542c3.078,3.491,6.37,6.574,9.184,9.13c0.375,0.341,0.771,0.659,1.186,0.951
		c4.653,3.282,9.462,6.051,11.914,7.41c2.186,1.211,4.478,2.482,6.842,3.327c1.119,0.473,2.237,0.914,3.353,1.321
		c-0.198,1.015-0.387,2.028-0.563,3.037c-0.615,3.511,0.317,7.117,2.557,9.89c5.119,6.337,11.855,10.918,21.197,14.417
		c0.276,0.104,0.558,0.197,0.841,0.281c0.547,0.161,1.073,0.318,1.525,0.459c15.945,5.006,32.476,8.076,48.463,11.046l4.089,0.761
		c16.779,3.134,34.102,5.135,51.482,5.946c3.504,0.165,6.877,0.248,10.147,0.248c5.617,0,10.925-0.244,16.051-0.734
		c4.151-0.4,8.337-1.047,12.813-1.981c0.948-0.199,1.939-0.432,2.936-0.67c0.115-0.028,0.23-0.057,0.344-0.087
		c1.817-0.489,3.813-1.001,6.108-1.568l0.171-0.043c2.021-0.499,4.788-1.184,7.649-2.952c2.135-1.32,3.816-3.259,4.821-5.559
		c0.109-0.251,0.217-0.504,0.321-0.758c1.419,0.609,2.944,0.95,4.498,0.997c2.073,0.06,3.922-0.086,5.553-0.217
		c0.504-0.041,1.006-0.083,1.521-0.114l1.244-0.074c2.258-0.133,4.817-0.283,7.415-0.65c4.962-0.687,10.333-1.827,16.42-3.481
		c6.674-1.812,13.203-4.074,19.404-6.722c0.215-0.093,0.428-0.19,0.637-0.294c2.489-1.235,4.941-2.558,7.299-3.938
		c0.261-0.153,0.541-0.312,0.832-0.478c3.973-2.264,11.367-6.477,12.692-15.121c0.271-1.767,0.155-3.572-0.34-5.29
		c-0.738-2.561-1.58-4.935-2.395-7.229c-0.815-2.298-1.586-4.468-2.13-6.498c-0.433-1.63-2.059-6.428-2.848-8.513
		c-0.728-2.243-1.449-4.486-2.162-6.735c-2.474-8.614-4.593-16.342-6.477-23.618c-5.042-19.489-9.092-39.714-12.388-56.93
		c-1.472-7.685-13.339-58.627-15.076-63.512c-1.897-5.3-4.846-9.852-8.757-13.524c-3.332-3.132-7.683-5.817-11.178-7.974
		c-0.595-0.367-1.166-0.719-1.7-1.055c-0.038-0.023-0.086-0.054-0.146-0.091c0.562-1.199,1.137-2.399,1.713-3.6
		c2.426-5.064,4.934-10.3,6.85-15.956c0.079-0.234,0.151-0.469,0.216-0.707c1.426-5.218,2.751-10.365,3.28-15.962
		c0.061-0.652,0.071-1.307,0.029-1.96c-0.594-9.188-1.79-17.642-3.656-25.846c-3.096-13.595-9.252-26.131-19.374-39.449
		c-10.685-14.066-24.37-22.98-39.576-25.78c-12.987-2.39-27.456,0.413-44.233,8.569c-25.719,12.512-47.269,32.954-59.128,56.091
		c-0.376,0.736-0.749,1.503-1.111,2.284c-0.181,0.392-0.341,0.793-0.481,1.201c-2.357,6.911-1.692,11.708-1.157,15.563
		c0.054,0.392,0.11,0.794,0.161,1.198c0.665,5.253,1.946,10.034,3.186,14.657l0.224,0.835c1.652,6.181,3.281,11.696,4.981,16.861
		c0.066,0.201,0.137,0.401,0.213,0.598c0.582,1.502,1.169,3,1.745,4.457c1.563,3.98,3.101,7.707,4.632,11.222
		c-5.832,2.693-11.171,5.202-13.864,6.613c-4.085,2.143-9.776,5.766-13.681,10.844c-2.813,3.647-4.114,7.848-5.158,11.222
		c-0.308,0.993-0.625,2.019-0.866,2.619c-7.667,19.136-17.636,38.431-31.373,60.722c-5.41,8.779-11.802,17.652-18.996,26.372
		c-1.128,1.367-2.239,2.741-3.348,4.114c-2.511,3.107-4.884,6.042-7.385,8.799c-0.529,0.582-1.366,1.359-2.252,2.181
		c-1.04,0.965-2.219,2.06-3.378,3.279c-0.682,0.718-1.275,1.514-1.766,2.373c-1.667,2.913-2.637,5.765-2.969,8.721
		c-0.083,0.742-0.098,1.49-0.046,2.235C9.323,304.533,15.362,312.44,19.852,317.542z"/>
	<g>
		<path style="fill:#56281F;" d="M303.998,325.474c-0.314-1.181-2.02-6.211-2.555-7.55c-0.789-2.43-1.57-4.861-2.343-7.298
			c-2.301-8.006-4.52-16.023-6.609-24.095c-4.919-19.017-8.865-38.401-12.56-57.699c-1.712-8.936-13.394-58.354-14.574-61.674
			c-1.215-3.395-3.048-6.303-5.588-8.688c-2.91-2.735-7.64-5.464-10.992-7.571c-1.869-1.175-8.903-5.525-10.066-6.067
			c1.366-2.717,3.754-6.383,5.028-9.121c2.898-6.217,6.15-12.446,8.331-18.88c1.248-4.568,2.454-9.177,2.897-13.868
			c-0.517-8.003-1.564-15.945-3.374-23.901c-2.996-13.159-9.079-24.079-17.167-34.721c-8.073-10.628-18.735-18.666-31.975-21.104
			c-12.492-2.298-25.479,2.124-36.596,7.528c-22.064,10.735-42.252,28.594-53.537,50.612c-0.304,0.595-0.605,1.214-0.897,1.846
			c-1.603,4.701-0.922,7.386-0.432,11.224c0.596,4.707,1.864,9.276,3.087,13.852c1.455,5.441,3.024,10.848,4.783,16.192
			c0.57,1.474,1.146,2.944,1.721,4.399c2.821,7.182,5.97,14.584,9.57,21.779c-3.105,1.447-19.604,8.911-24.559,11.508
			c-3.336,1.75-7.313,4.426-9.64,7.45c-2.152,2.791-3.026,7.614-4.339,10.892c-8.77,21.891-19.974,42.571-32.323,62.609
			c-5.966,9.681-12.751,18.986-19.985,27.754c-3.699,4.482-7.208,9.048-11.12,13.36c-1.676,1.844-3.935,3.68-5.814,5.659
			c-0.719,1.257-1.259,2.576-1.414,3.96c0.406,5.81,4.403,11.245,8.159,15.513c2.559,2.903,5.361,5.556,8.224,8.156
			c7.169,5.056,16.117,9.667,16.401,9.436c4.349,1.843,8.865,3.175,13.393,3.742c-1.291,4.653-2.368,9.378-3.202,14.141
			c4.187,5.183,9.795,8.317,15.92,10.611c0.614,0.181,1.203,0.358,1.735,0.524c16.559,5.198,34.078,8.268,51.12,11.449
			c16.35,3.054,33.183,4.975,49.795,5.75c8.204,0.386,16.257,0.339,24.434-0.444c3.854-0.371,7.671-0.983,11.458-1.774
			c0.844-0.177,1.725-0.386,2.613-0.597c2.109-0.567,4.228-1.106,6.345-1.629c1.585-0.393,3.035-0.733,4.294-1.511
			c0.559-1.282,1.005-2.606,1.366-3.957c0.109-0.567,0.216-1.134,0.344-1.703c1.087-4.783,2.014-9.591,2.809-14.432
			c1.789-10.822,3.137-21.607,4.175-32.533c0.034-0.378,0.065-0.75,0.094-1.125c0.163-1.056,0.299-2.118,0.408-3.195
			c0.308,3.566,0.655,7.13,1.064,10.684c1.416,12.393,3.23,24.698,4.914,37.039c-0.038-0.009-0.065-0.013-0.102-0.02l0.034,0.3
			c0.302,0.72,0.769,1.392,1.406,1.783c1.975,0.06,3.986-0.194,5.934-0.313c2.573-0.16,5.171-0.27,7.728-0.632
			c5.006-0.694,10.002-1.841,14.88-3.166c6.078-1.651,12.02-3.699,17.788-6.162c2.251-1.116,4.447-2.302,6.538-3.526
			c2.689-1.577,7.093-3.728,7.567-6.819C307.235,334.734,305.271,330.221,303.998,325.474z"/>
		<path style="fill:#FAC947;" d="M248.908,356.888c-0.31-4.88-1.354-9.77-1.728-14.635c-0.513-6.645-1.608-13.201-2.345-19.831
			c-0.198-1.774-0.377-3.55-0.555-5.325c-1.008-7.445-1.762-14.92-2.169-22.424c-0.351,0.212-0.853-34.151-0.946-45.137
			c-0.049-5.828-0.078-11.667-0.116-17.51c-0.621-16.129-0.9-32.276-2.234-48.365c-0.825,22.453-0.414,44.98-0.43,67.473
			c-0.008,10.503,0.876,44.353,1.096,52.854c-0.125,1.546-3.386,28.245-4.871,37.878c-0.693,4.5-1.57,9.003-2.405,13.477
			c-0.413,2.203-1.24,8.727-2.168,10.93c-3.316,0.261-6.673,1.022-10.02,1.795c-1.785,0.015-3.59-0.028-5.43-0.16
			c-7.689-0.556-15.128-2.453-22.554-4.403c-16.178-4.25-31.811-10.152-47.722-15.277c-15.133-4.873-30.466-9.529-46.386-10.845
			c-9.998-0.83-22.555,0.048-32.337,4.712c1.132-4.112,2.398-8.171,3.749-12.19c0.211-0.31,0.336-0.616,0.259-0.772
			c7.469-21.99,17.811-42.823,26.769-64.322c7.165-17.207,14.731-34.395,19.866-52.261c1.177-5.125,2.524-10.218,3.428-15.406
			c0.664-3.802,1.895-8.766,1.373-12.984c-0.841,5.618-1.971,11.157-3.328,16.631c-1.178-4.458-3.11-8.904-4.662-12.848
			c-1.424-3.629-2.94-7.151-4.5-10.653c-1.294-2.357-2.671-4.662-4.145-6.921c1.3,5.839,4.236,11.674,6.207,17.331
			c2.09,6.005,3.935,12.014,5.81,18.055c-5.79,21.157-14.738,41.417-23.191,61.633c-5.496,13.148-11.714,25.989-17.14,39.181
			c-0.843,2.038-1.733,4.105-2.637,6.188c-1.7,4.9-3.788,9.663-5.349,14.625c-1.217-0.856-3.427-1.556-4.487-2.172
			c-3.068-1.782-5.895-3.813-8.762-5.888c-6.209-4.502-11.692-9.987-17.2-15.292c-2.8-2.704-5.282-5.68-7.949-8.506
			c-1.416-1.507-3.476-3.96-5.814-3.86c-0.141,0.002-0.271,0.018-0.396,0.033c1.732-1.488,3.139-3.481,4.739-5.121
			c6.512-6.672,12.001-14.282,17.884-21.495c6.367-7.806,12.036-16.507,17.293-25.094c5.062-8.273,11.091-16.635,15.053-25.506
			c4.34-9.721,9.247-19.193,13.509-28.937c1.804-4.126,3.299-8.402,4.966-12.588c2.016-5.062,6.623-7.541,11.352-10.022
			c4.909-2.579,9.501-5.575,14.663-7.667c2.121-0.86,4.224-1.793,6.286-2.78c0.495-0.237,0.984-0.471,1.481-0.706
			c3.018,5.94,6.358,11.718,10.075,17.106c-4.062-7.728-7.539-15.737-10.581-23.928c-2.478-5.312-4.812-10.708-6.937-16.109
			c-3.006-7.625-5.639-15.401-8.238-23.171c-1.363-4.09-2.404-8.214-3.087-12.466c-0.416-2.579-0.398-4.787-0.161-7.075
			c0.099-0.343,0.186-0.679,0.304-1.026c2.282-6.68,6.977-12.807,11.227-18.332c8.443-10.985,18.784-20.509,30.578-27.839
			c12.347-7.673,27.232-14.973,42.152-14.207c14.2,0.732,25.409,8.58,34.469,19.014c8.933,10.288,15.2,22.08,18.61,35.255
			c2.253,8.709,3.39,17.576,3.871,26.49c-1.453,11.318-6.913,21.679-11.837,32.038c-0.901,1.89-1.832,3.759-2.782,5.615
			c-0.005-0.002-0.011-0.005-0.018-0.011c-2.16,5.25-4.916,10.273-7.583,15.264c-1.718,3.222-3.758,6.248-5.439,9.498
			c-0.509,0.987-1.032,1.962-1.572,2.924c5.607-7.83,10.517-16.206,14.933-24.795c2.095,1.632,4.689,3.044,6.627,4.322
			c3.357,2.213,6.566,4.529,9.83,6.857c6.682,4.766,8.983,11.749,11.332,19.221c2.616,8.334,3.838,17.225,5.616,25.764
			c1.96,9.423,3.892,18.843,5.704,28.295c3.688,19.248,7.514,38.693,12.687,57.599c2.34,8.567,5.01,17.018,7.48,25.542
			c0.607,2.08,1.297,4.112,2.039,6.13c0.382,1.308,0.767,2.61,1.179,3.903c1.464,4.608,3.585,9.458,4.814,14.255
			c-0.036,0.033-0.078,0.056-0.117,0.086c0.028,0.086,0.045,0.172,0.067,0.257c-1.732,0.08-3.58,0.795-5.182,1.026
			c-3.124,0.446-6.168,1.412-9.259,2.028c-6.532,1.298-12.906,3.112-19.264,5.087c-6.028,1.868-12.017,4.069-17.642,6.951
			C253.03,354.155,250.453,355.306,248.908,356.888z"/>
		<path style="fill:#FAC947;" d="M73.446,312.757c0.904-2.083,1.795-4.15,2.637-6.188c5.426-13.192,11.644-26.033,17.14-39.181
			c8.453-20.216,17.401-40.476,23.191-61.633c-1.333-4.298-2.656-8.585-4.06-12.861c-1.452,13.06-5.127,25.77-10.343,37.871
			c-6.224,14.439-14.295,27.838-21.986,41.517c-7.214,12.831-15.168,25.299-21.795,38.421c-1.286,2.555-2.61,5.399-4.237,7.97
			c0.288,0.216,0.566,0.436,0.857,0.649c2.868,2.076,5.694,4.106,8.762,5.888c1.061,0.616,3.27,1.317,4.487,2.172
			C69.658,322.421,71.745,317.657,73.446,312.757z"/>
		<path style="fill:#FAC947;" d="M306.006,337.911c-1.228-4.798-3.349-9.647-4.814-14.255c-0.412-1.293-0.798-2.595-1.179-3.903
			c-0.741-2.017-1.432-4.05-2.039-6.13c-2.47-8.524-5.14-16.975-7.48-25.542c-5.173-18.905-8.999-38.351-12.687-57.599
			c-1.812-9.452-3.744-18.872-5.704-28.295c-1.777-8.539-2.999-17.43-5.616-25.764c-2.348-7.473-4.649-14.456-11.332-19.221
			c-3.264-2.328-6.474-4.643-9.83-6.857c-1.939-1.278-4.533-2.69-6.627-4.322c-4.416,8.59-9.326,16.965-14.933,24.795
			c0.54-0.962,1.064-1.936,1.572-2.924c1.681-3.25,3.721-6.276,5.439-9.498c2.666-4.99,5.423-10.013,7.583-15.264
			c0.008,0.006,0.013,0.008,0.018,0.011c0.951-1.856,1.882-3.725,2.782-5.615c4.924-10.359,10.384-20.72,11.837-32.038
			c-0.481-8.913-1.617-17.781-3.871-26.49c-3.41-13.174-9.677-24.967-18.61-35.255c-0.793-0.913-1.607-1.796-2.431-2.664
			c3.245,4.674,5.919,9.767,7.956,15.121c5.62,14.793,10.631,33.353,4.734,48.789c-0.174,0.456-0.812,0.553-1.11,0.168
			c-5.782-7.437-11.851-15.043-19.671-20.448c-6.233-4.305-13.431-7.719-20.597-10.724c6.536,4.247,12.75,9.121,17.989,14.821
			c6.137,6.676,12.389,16.162,9.177,25.647c-2.128,6.299-6.986,11.995-11.517,16.726c-5.002,5.222-10.52,9.904-16.342,14.184
			c-5.936,4.371-12.038,8.626-18.378,12.383c-6.716,3.98-13.642,7.591-20.308,11.644c5.69-0.554,11.076-3.539,16.196-5.843
			c6.191-2.783,12.249-5.626,18.08-9.128c12.054-7.235,23.317-15.71,35.627-22.524c0.501-0.274,1.09,0.335,0.869,0.835
			c-4.886,11.023-15.991,18.231-25.191,25.361c-7.117,5.511-14.038,11.161-21.248,16.447c4.783-0.044,9.527-0.349,14.317-0.551
			c4.081-0.171,8.766-0.132,11.312,3.634c3.932,5.816,4.807,13.951,5.26,20.756c0.616,9.266,0.68,18.618,0.913,27.903
			c0.265,10.77,0.233,21.548-0.039,32.317c-0.5,19.506-1.348,39.075-3.785,58.446c-2.078,16.53-5.174,33.122-11.06,48.752
			c4.385,0.992,8.811,1.785,13.318,2.11c1.841,0.132,3.646,0.175,5.43,0.16c3.347-0.774,6.704-1.535,10.02-1.795
			c0.928-2.203,1.755-8.727,2.168-10.93c0.835-4.474,1.712-8.977,2.405-13.477c1.485-9.632,4.746-36.331,4.871-37.878
			c-0.22-8.501-1.103-42.351-1.096-52.854c0.016-22.493-0.396-45.02,0.43-67.473c0.453,5.452,0.776,10.912,1.041,16.376
			c1.873-12.426,5.115-26.49,15.958-34.069c0.456-0.319,1.12-0.017,1.055,0.575c-1.777,16.586-2.749,33.298-1.904,49.975
			c0.831,16.451,3.418,32.713,6.178,48.933c4.528,26.635,10.1,53.076,16.674,79.276c4.524-1.315,9.068-2.5,13.698-3.421
			c3.091-0.616,6.135-1.582,9.259-2.028c1.601-0.231,3.45-0.946,5.182-1.026c-0.022-0.084-0.039-0.171-0.067-0.257
			C305.927,337.967,305.97,337.943,306.006,337.911z"/>
		<path style="fill:#FAC947;" d="M46.776,312.651c-4.26-5.65-8.629-11.73-11.825-18.076c-0.93-1.847-2.33-4.348-1.337-6.445
			c1.061-2.231,2.773-4.075,4.508-5.799c2.409-2.391,5.035-4.568,7.405-6.994c3.102-3.176,5.559-7.22,8.158-10.815
			c5.959-8.254,11.774-16.636,17.094-25.324c5.573-9.102,10.497-18.446,14.583-28.312c3.957-9.556,7.434-19.305,11.382-28.86
			c1.592-3.839,2.985-8.05,5.617-11.341c2.038-2.546,4.446-4.746,7.083-6.662c4.337-3.146,9.061-5.744,13.493-8.752
			c-5.16,2.093-9.745,5.086-14.652,7.661c-4.729,2.481-9.336,4.96-11.352,10.022c-1.667,4.186-3.162,8.462-4.966,12.588
			c-4.262,9.744-9.17,19.217-13.509,28.937c-3.961,8.871-9.991,17.233-15.053,25.506c-5.257,8.587-10.926,17.288-17.293,25.094
			c-5.883,7.213-11.371,14.823-17.884,21.495c-1.599,1.64-3.007,3.633-4.739,5.121c0.124-0.014,0.255-0.03,0.396-0.033
			c2.337-0.1,4.398,2.354,5.814,3.86c2.667,2.826,5.149,5.802,7.949,8.506c3.038,2.923,6.069,5.901,9.218,8.739
			C46.834,312.728,46.804,312.69,46.776,312.651z"/>
		<path style="fill:#FAC947;" d="M177.63,357.755c-12.514-5.944-24.866-12.313-37.827-17.253c-9.929-3.787-20.244-6.85-30.812-8.192
			c-5.865-0.743-11.792-1.037-17.699-0.716c-3.252,0.179-6.705,0.959-9.966,0.735c-6.04-0.418-6.572-6.084-4.89-10.914
			c1.287-3.703,3.233-7.089,4.699-10.708c1.851-4.584,3.766-9.144,5.662-13.713c4.035-9.763,8.41-19.367,12.201-29.234
			c3.666-9.533,6.735-19.245,10.061-28.894c5.637-16.369,12.098-33.213,12.012-50.642c-0.236,3.109-0.953,6.287-1.411,8.92
			c-0.904,5.188-2.251,10.281-3.428,15.406c-5.134,17.865-12.7,35.054-19.866,52.261c-8.958,21.499-19.3,42.333-26.769,64.322
			c0.077,0.155-0.048,0.461-0.259,0.772c-1.352,4.02-2.618,8.078-3.749,12.19c9.782-4.664,22.339-5.541,32.337-4.712
			c15.919,1.317,31.253,5.973,46.386,10.845c14.555,4.69,28.883,10.011,43.604,14.141
			C184.439,360.923,181.012,359.367,177.63,357.755z"/>
		<path style="fill:#FAC947;" d="M115.034,105.676c2.599,7.77,5.232,15.546,8.238,23.171c2.125,5.401,4.458,10.797,6.937,16.109
			c2.848,7.666,6.093,15.166,9.833,22.436c0.718,1.017,1.435,2.031,2.178,3.034c0.202,0.275,0.15,0.565-0.01,0.775
			c1.398,1.775,2.84,3.516,4.367,5.181c-7.781-13.252-13.879-27.435-19.058-41.897c-2.963-8.268-5.678-16.622-8.259-25.018
			c-1.182-3.834-2.348-7.685-3.354-11.57c-0.835-3.229-2.004-7.136-1.247-10.495c1.473-6.548,7.269-10.781,12.476-14.468
			c6.617-4.68,13.849-8.533,21.518-11.191c7.879-2.731,16.138-4.436,24.432-5.256c3.943-0.394,8.326-1.128,12.279-0.549
			c3.011,0.441,6.464,1.538,9.504,0.736c-3.92-2.739-9.332-3.121-13.951-3.164c-5.562-0.055-11.119,0.478-16.618,1.283
			c-6.238,0.916-12.297,2.208-18.201,4.519c-6.594,2.576-12.899,5.808-19.302,8.818c-0.587,0.276-1.187-0.467-0.79-0.982
			c11.015-14.312,26.988-24.939,43.321-32.272c8.385-3.767,17.228-7.005,26.547-6.925c8.201,0.071,15.953,2.311,23.469,5.365
			c-6.735-4.899-14.431-8.126-23.294-8.585c-14.919-0.766-29.805,6.534-42.152,14.207c-11.794,7.33-22.135,16.855-30.578,27.839
			c-4.25,5.525-8.945,11.652-11.227,18.332c-0.118,0.347-0.205,0.683-0.304,1.026c-0.237,2.288-0.256,4.496,0.161,7.075
			C112.63,97.462,113.671,101.587,115.034,105.676z"/>
		<path style="fill:#56281F;" d="M223.181,93.633c-4.234-5.565-9.361-10.524-14.793-14.903
			c-10.366-8.357-22.513-14.062-35.443-17.165c-11.875-2.846-23.323,0.612-33.956,6.093c-4.805,2.477-9.738,5.498-13.752,9.153
			c-2.896,2.638-7.48,6.594-8.459,10.606c-1.283,5.245,1.067,9.264,2.789,14.099c2.286,6.424,4.852,12.731,7.723,18.916
			c0.308,0.655,0.613,1.319,0.918,1.975c0.813,2.104,1.752,4.18,2.762,6.231c7.314,14.586,17.484,27.349,27.007,40.511
			c8.327-3.816,16.376-8.514,24.383-12.717c11.509-6.038,22.5-14.111,31.936-23.031c7.119-6.729,15.183-16.527,16.126-26.666
			C230.829,102.36,225.587,96.798,223.181,93.633z"/>
		<path style="fill:#F1A242;" d="M219.332,126.202c-8.757,11.113-21.65,19.787-33.742,26.864
			c-8.685,5.088-17.958,10.309-27.391,14.443c-0.007-0.076-0.028-0.142-0.081-0.2c-6.595-7.11-11.69-15.904-16.666-24.169
			c-2.41-3.994-4.99-8.041-7.398-12.18c-4.934-10.446-9.465-21.154-13.327-32.015c-1.118-3.147-2.789-5.924-2.778-9.38
			c0.013-3.603,2.475-6.328,4.739-8.879c4.777-5.384,11.305-9.168,17.642-12.42c5.845-3.002,13.084-5.395,19.609-6.18
			c7.463-0.9,15.67,2.087,22.581,4.598c13.084,4.747,23.945,12.713,33.74,22.45c4.517,4.487,8.948,10.383,11.71,16.128
			c1.672,3.483-1.066,8.994-2.621,12.186C223.839,120.548,221.465,123.494,219.332,126.202z"/>
		<path style="fill:#56281F;" d="M228.641,146.027c-2.628,2.385-5.439,4.568-8.246,6.728c-6.008,4.618-12.419,8.708-19.06,12.349
			c-4.017,2.203-8.149,4.261-12.377,6.105c-1.695,0.986-3.421,1.915-5.203,2.76c-4.251,2.008-8.61,3.736-13.017,5.363
			c4.589-1.107,9.103-2.861,13.405-4.287c7.454-2.473,14.477-6.479,21.199-10.493c7.188-4.291,13.982-9.124,20.36-14.548
			c1.803-1.533,4.563-3.641,6.866-5.996C231.339,144.778,229.99,145.418,228.641,146.027z"/>
		<path style="fill:#F1A242;" d="M53.144,324.237c-0.971-0.33-1.961-0.726-2.954-1.145c-6.438-3.336-12.175-7.449-17.472-12.626
			c-3.593-3.509-6.722-7.702-8.825-12.255c-0.562-1.216-1.631-2.794-1.598-4.287c1.865-2.949,9.035,6.42,10.43,7.994
			c3.571,4.044,7.653,7.774,11.639,11.397c4.041,3.678,8.374,7.013,12.825,10.173c2.025,1.431,4.111,2.612,6.256,3.847
			c0.452,0.257,1.418,0.634,2.291,1.026C61.448,327.371,57.297,325.662,53.144,324.237z"/>
		<path style="fill:#F1A242;" d="M190.485,370.816c-15.152-0.403-30.302-2.127-45.298-4.27c-15-2.14-29.951-5.472-44.745-8.736
			c-7.34-1.616-14.683-3.548-21.785-6.02c-3.495-1.218-6.844-2.558-9.947-4.61c-1.068-0.707-2.111-2.026-2.852-3.552
			c0.528-0.235,1.039-0.457,1.495-0.616c3.842-1.362,7.828-2.244,11.855-2.836c8.687-1.283,17.267-0.903,25.923,0.422
			c15.383,2.345,30.42,7.47,45.067,12.587c14.889,5.199,29.816,10.233,45.147,13.958c5.021,1.224,10.347,2.194,15.736,2.671
			C204.26,370.704,197.358,371.001,190.485,370.816z"/>
		<path style="fill:#F1A242;" d="M304.096,342.271c-2.908,2.776-8.248,4.608-11.03,5.811c-5.091,2.199-9.921,4.186-15.344,5.498
			c-5.274,1.278-10.57,2.425-15.922,3.324c-1.11,0.19-7.677,1.125-12.284,1.196c0.261-0.388,2.805-2.099,3.477-2.455
			c2.883-1.516,5.798-2.824,8.837-3.994c4.856-1.875,9.793-3.446,14.778-4.936c5.212-1.543,10.507-2.498,15.764-3.817
			c2.829-0.711,5.634-1.377,8.518-1.791c0.95-0.136,4.856-1.683,4.883-0.476C305.463,341.195,304.938,341.73,304.096,342.271z"/>
		<g>
			<path style="fill:#56281F;" d="M148.857,166.266c-1.395-0.03-2.66,1.017-3.136,2.314c-0.507,1.377-0.119,3.856,1.441,4.443
				c-1.059,9.656-6.797,19.451-10.547,28.024c-2.586,5.909-6.057,15.376-4.115,22.343c-1.152,0.181-2.308,1.056-2.402,2.265
				c-0.124,1.603,0.976,2.265,2.266,2.588c-0.239,0.836-0.339,1.497,0.301,2.195c0.674,0.743,1.647,0.991,2.592,0.757
				c0.754-0.191,1.668-1.126,2.141-1.705c0.615-0.757,1.197-1.842,1.116-2.839c-0.008-0.064-0.04-0.093-0.08-0.099
				c1.219-1.585,0.207-3.319-1.645-3.306c-0.829-9.596,2.246-17.02,5.886-25.9c3.17-7.735,7.077-15.18,7.373-23.608
				c0.107,0.022,0.227-0.03,0.319-0.083C152.982,172.17,152.09,166.336,148.857,166.266z"/>
			<path style="fill:#FFFFFF;" d="M134.67,230.243c-1.039-0.223-1.513-0.989-1.719-1.882c0.216,0.039,0.433,0.07,0.644,0.096
				c1.539,0.184,2.906-0.139,4.014-1.059C137.146,228.703,136.358,230.608,134.67,230.243z"/>
			<path style="fill:#FFFFFF;" d="M137.065,225.295c0.15-0.133,0.384-0.669-0.033-0.518c-0.071,0.023-0.147,0.036-0.221,0.057
				c0.066-0.115,0.109-0.226,0.098-0.317c-0.013-0.093-0.017-0.185-0.027-0.28c1.813,0.525,0.953,3.051-1.041,3.329
				c-0.736,0.097-1.484-0.006-2.208-0.11c-0.668-0.1-1.306-0.283-1.885-0.638c-0.363-0.227-0.558-0.575-0.702-0.971
				c-0.407-1.135,0.756-1.689,1.638-1.907c0.095,0.291,0.182,0.583,0.302,0.864c-0.228-0.025-0.455-0.042-0.675-0.034
				c-0.13,0-0.503,0.316-0.355,0.459C133.324,226.588,135.633,226.586,137.065,225.295z"/>
			<path style="fill:#FFFFFF;" d="M135.613,225.048c-0.309,0.022-0.618,0.023-0.914-0.002c0.008-0.055,0.012-0.109-0.003-0.153
				c-3.345-9.545,1.529-20.483,5.443-29.058c3.484-7.632,8.855-17.418,7.817-26.132c0.04-0.164,0.066-0.328,0.071-0.497
				c0.002-0.02,0.002-0.027,0.002-0.043c0.25,0.087,0.455,0.384,0.595,0.572c0.384,0.518,0.581,1.21,0.823,1.802
				c0.105,0.253,0.14,0.52,0.171,0.785C148.244,190.68,132.205,206.227,135.613,225.048z"/>
			<path style="fill:#FFFFFF;" d="M150.427,172.823c0.353-1.526,0-4.362-1.581-4.863c-0.681-0.216-1.572,0.47-1.802,1.074
				c-0.181,0.471,0.012,0.943,0.025,1.439c0.012,0.33,0.129,0.585,0.24,0.855c-0.009,0.164-0.034,0.333-0.044,0.5
				c-0.409-0.66-0.693-1.467-0.832-2.122c-0.174-0.808,0.252-1.959,1.037-2.312c0.63-0.285,1.346,0.02,1.864,0.368
				C150.441,168.5,151.682,171.73,150.427,172.823z"/>
		</g>
		<g>
			<path style="fill:#56281F;" d="M179.514,166.956c-1.396-0.028-2.664,1.02-3.138,2.314c-0.504,1.376-0.12,3.854,1.447,4.443
				c-1.061,9.655-6.798,19.449-10.55,28.022c-2.589,5.91-6.061,15.377-4.118,22.342c-1.147,0.183-2.306,1.058-2.402,2.267
				c-0.118,1.604,0.976,2.268,2.268,2.584c-0.245,0.841-0.34,1.498,0.298,2.196c0.674,0.745,1.648,0.996,2.594,0.758
				c0.752-0.19,1.668-1.124,2.142-1.705c0.612-0.755,1.201-1.843,1.111-2.834c-0.003-0.067-0.038-0.092-0.079-0.101
				c1.22-1.583,0.208-3.319-1.645-3.303c-0.826-9.6,2.251-17.025,5.888-25.906c3.168-7.729,7.077-15.179,7.374-23.607
				c0.103,0.023,0.23-0.029,0.317-0.081C183.64,172.857,182.748,167.025,179.514,166.956z"/>
			<path style="fill:#FFFFFF;" d="M165.325,230.931c-1.039-0.222-1.51-0.99-1.72-1.878c0.216,0.038,0.432,0.068,0.647,0.095
				c1.536,0.185,2.907-0.141,4.014-1.059C167.803,229.396,167.014,231.296,165.325,230.931z"/>
			<path style="fill:#FFFFFF;" d="M167.719,225.984c0.15-0.136,0.388-0.669-0.03-0.524c-0.069,0.025-0.148,0.042-0.222,0.062
				c0.066-0.115,0.105-0.229,0.096-0.319c-0.009-0.09-0.014-0.183-0.024-0.279c1.813,0.526,0.953,3.052-1.043,3.328
				c-0.732,0.101-1.483-0.005-2.21-0.11c-0.664-0.099-1.302-0.283-1.881-0.636c-0.365-0.226-0.56-0.576-0.702-0.973
				c-0.406-1.137,0.757-1.686,1.638-1.911c0.093,0.294,0.183,0.587,0.299,0.871c-0.225-0.026-0.449-0.043-0.669-0.036
				c-0.135,0.003-0.502,0.319-0.36,0.463C163.982,227.278,166.285,227.277,167.719,225.984z"/>
			<path style="fill:#FFFFFF;" d="M166.271,225.734c-0.312,0.024-0.621,0.029-0.914,0c0.006-0.054,0.009-0.108-0.003-0.152
				c-3.345-9.545,1.528-20.484,5.441-29.059c3.482-7.631,8.855-17.417,7.817-26.134c0.041-0.162,0.067-0.323,0.07-0.491
				c0.005-0.017,0.005-0.028,0.005-0.042c0.25,0.085,0.456,0.379,0.595,0.57c0.38,0.517,0.58,1.208,0.826,1.803
				c0.102,0.252,0.14,0.517,0.165,0.785C178.901,191.368,162.86,206.914,166.271,225.734z"/>
			<path style="fill:#FFFFFF;" d="M181.084,173.512c0.352-1.528-0.003-4.359-1.58-4.861c-0.683-0.219-1.575,0.465-1.805,1.072
				c-0.176,0.471,0.011,0.943,0.029,1.437c0.006,0.331,0.127,0.585,0.237,0.857c-0.006,0.164-0.03,0.332-0.042,0.499
				c-0.411-0.66-0.695-1.466-0.835-2.12c-0.172-0.813,0.255-1.959,1.042-2.317c0.626-0.281,1.343,0.023,1.861,0.372
				C181.098,169.186,182.337,172.421,181.084,173.512z"/>
		</g>
		<path style="fill:#56281F;" d="M206.05,100.313c-0.1,0.105-0.174,0.213-0.176,0.3c-0.141,6.124-1.16,12.463-2.169,18.502
			c-1.073,6.404-3.089,14.123-6.43,19.846c-7.589-3.105-16.263-2.797-24.164-1.185c-3.742,0.762-7.263,2.757-10.597,4.545
			c-1.568,0.846-3.063,1.881-4.528,2.888c-0.816,0.557-3.817,2.205-5.356,3.639c0.865-0.399,1.732-0.788,2.603-1.17
			c0.713-0.314,1.433-0.622,2.149-0.926c5.469-3.541,11.219-6.407,17.821-7.621c5.188-0.955,10.06-0.508,14.941,0.4
			c3.213-0.012,6.52,0.081,9.589,0.688c-0.02-0.083-0.06-0.156-0.157-0.205c-0.425-0.222-0.855-0.424-1.287-0.623
			c3.327-5.242,4.768-11.849,6.087-17.845c1.269-5.779,2.054-12.05,2.189-18.086C206.448,102.4,206.281,101.349,206.05,100.313z"/>
	</g>
</g>
</svg>
